<svg id="Capa_1" data-name="Capa 1" xmlns="http://www.w3.org/2000/svg" viewBox="0 0 806.27 554.22"><defs><style>.cls-1{fill:#a19e6c;}.cls-2{fill:#fff;}</style></defs><path class="cls-1" d="M645.33,639.91c491.24-192,96.17-691.17-469.6-453.12C-112.67,308.14,184.24,820.17,645.33,639.91Z" transform="translate(-61.83 -123.75)"/><path class="cls-2" d="M234.26,403.87h40.8a12.32,12.32,0,0,1,12.32,12.31v32.5a3,3,0,0,1-3,3H180.25a3,3,0,0,1-3-3V309.21a3,3,0,0,1,3-3H219a12.33,12.33,0,0,1,12.32,12.32V400.9A3,3,0,0,0,234.26,403.87Z" transform="translate(-61.83 -123.75)"/><path class="cls-2" d="M382.91,382.68V317.41a12.62,12.62,0,0,1,12.62-12.62H434a3,3,0,0,1,3,3v70.9c0,48.24-45.69,84.73-92.16,71.8-29.71-8.26-49.09-33.87-49.09-67.78V307.76a3,3,0,0,1,3-3h39.11a11.93,11.93,0,0,1,11.93,11.93v66c0,11.43,7.27,18.7,16.61,18.7S382.91,394.11,382.91,382.68Z" transform="translate(-61.83 -123.75)"/><path class="cls-2" d="M524.14,453.72c-27.15,0-51.53-1.39-59.55-1.9a3,3,0,0,1-2.76-2.95v-131a12.3,12.3,0,0,1,11.65-12.3c11.51-.61,30.31-1.38,50.66-1.38,55.25,0,83.08,30.11,83.08,74.77S579.39,453.72,524.14,453.72Zm0-45.7c15.58,0,24.92-9.35,24.92-29.08s-9.34-29.08-24.92-29.08h-5.35a3,3,0,0,0-3,3v52.23a3,3,0,0,0,3,3Z" transform="translate(-61.83 -123.75)"/><path class="cls-2" d="M193,474.14c0-.52.4-1.06,1.2-1.61a4.16,4.16,0,0,1,2.36-.82,2.76,2.76,0,0,1,1.8.52,1.84,1.84,0,0,1,.71,1.28q1.58,20.25,1.58,25.61c0,3.58-.05,6.26-.15,8.06a43.48,43.48,0,0,1-.75,5.81,14.54,14.54,0,0,1-1.73,4.92q-2.47,4.2-7.95,4.2a11.72,11.72,0,0,1-8.92-3.64q-3.45-3.63-3.45-10.46a2.66,2.66,0,0,1,1.16-2.07,4,4,0,0,1,2.51-.93c1.1,0,1.78,1,2,3.07q1,8.7,6.52,8.7a3.49,3.49,0,0,0,2.44-.93,6.11,6.11,0,0,0,1.54-2.26,15.14,15.14,0,0,0,.82-3.48,54.22,54.22,0,0,0,.45-7.54q0-4.4-1.08-16T193,474.14Z" transform="translate(-61.83 -123.75)"/><path class="cls-2" d="M235.26,473.06a3.05,3.05,0,0,1,2.32-1.2,2.62,2.62,0,0,1,2.18,1.27A76.65,76.65,0,0,1,241,487.76v5.7a67.5,67.5,0,0,1-.22,7.61c-.15.78-.3,1.64-.45,2.59s-.29,1.67-.42,2.17-.31,1.18-.56,2a17.36,17.36,0,0,1-2.32,4.95,17.67,17.67,0,0,1-5.93,6.6,13.52,13.52,0,0,1-7.46,2.4q-3.79,0-7.8-3.3a25.77,25.77,0,0,1-6.56-8.25,38.3,38.3,0,0,1-3.9-17.63q0-3.53,1.05-16.72a6,6,0,0,1,1.61-2.14,3.35,3.35,0,0,1,2.21-.94c1.1,0,1.78.75,2,2.25q-1,13-1.05,16.43a31.94,31.94,0,0,0,3.22,14.62,23.8,23.8,0,0,0,5,7q3,2.8,5.81,2.81,4.72,0,8.1-7.35,1.43-2.55,1.58-8.18a9.94,9.94,0,0,1,.15-2.1l.15-9.9a69.76,69.76,0,0,0-1-12.6A4.08,4.08,0,0,1,235.26,473.06Z" transform="translate(-61.83 -123.75)"/><path class="cls-2" d="M268.86,472a15.75,15.75,0,0,1,7.16,1.8q3.56,1.8,3.56,4.05,0,3.45-2.85,3.45a10,10,0,0,1-3.67-1.35,10.17,10.17,0,0,0-4.43-1.35q-6.45,0-10.76,5.77t-4.31,14.7a22.83,22.83,0,0,0,2.92,11.7q2.92,5,6.94,5a7.89,7.89,0,0,0,6.3-2.66,9.06,9.06,0,0,0,2.29-6,14.9,14.9,0,0,0-.27-3.11,4.36,4.36,0,0,0-1.31-2.26,3.84,3.84,0,0,0-2.77-1,7.39,7.39,0,0,1-3.27-.75,2.26,2.26,0,0,1-1.53-2,4.25,4.25,0,0,1,.75-2.4,3,3,0,0,1,2-1.35q5.1,0,6.86,1.05a31.67,31.67,0,0,1,2.67,1.72,4.92,4.92,0,0,1,1.5,2.25c.4,1,.71,1.93.93,2.63a15,15,0,0,1,.49,3.37q.15,3.9.15,9.12t-.75,6.41a2.61,2.61,0,0,1-2.25,1,2.71,2.71,0,0,1-2.17-.64,5.5,5.5,0,0,1-.75-3,15.5,15.5,0,0,1-4.54,2.66,13.3,13.3,0,0,1-4.84,1.09q-6.6,0-11.1-7T247.33,498a31.74,31.74,0,0,1,1.73-10.31,25.93,25.93,0,0,1,4.65-8.52A19.24,19.24,0,0,1,268.86,472Z" transform="translate(-61.83 -123.75)"/><path class="cls-2" d="M312.51,473.06a3.05,3.05,0,0,1,2.32-1.2,2.62,2.62,0,0,1,2.18,1.27,76.65,76.65,0,0,1,1.27,14.63v5.7a67.5,67.5,0,0,1-.22,7.61c-.15.78-.3,1.64-.45,2.59s-.29,1.67-.42,2.17-.31,1.18-.56,2a17.36,17.36,0,0,1-2.32,4.95,17.67,17.67,0,0,1-5.93,6.6,13.52,13.52,0,0,1-7.46,2.4q-3.8,0-7.8-3.3a25.77,25.77,0,0,1-6.56-8.25,38.3,38.3,0,0,1-3.9-17.63q0-3.53,1-16.72a6,6,0,0,1,1.61-2.14,3.35,3.35,0,0,1,2.21-.94c1.1,0,1.78.75,2,2.25q-1.05,13-1.05,16.43a31.94,31.94,0,0,0,3.22,14.62,23.8,23.8,0,0,0,5,7q3,2.8,5.81,2.81,4.73,0,8.1-7.35,1.42-2.55,1.58-8.18a9.94,9.94,0,0,1,.15-2.1l.15-9.9a69.76,69.76,0,0,0-1.05-12.6A4.08,4.08,0,0,1,312.51,473.06Z" transform="translate(-61.83 -123.75)"/><path class="cls-2" d="M325.41,496a2.18,2.18,0,0,1-1.05-1.95,3.68,3.68,0,0,1,.82-2.33q-.3-7.5-.3-15.82a4.2,4.2,0,0,1,4.13-3.68q9.9.45,21.45.45c1.9.4,2.85,1.23,2.85,2.48q0,3.15-6.15,3.67c-1.1.05-2.3.08-3.6.08h-4.88q-1.43,0-7.87-.6,0,9.38.3,12.9,4,.07,15.3.07c1.8.35,2.7,1.16,2.7,2.44a3.26,3.26,0,0,1-2.18,3,2.86,2.86,0,0,1-.82.3l-13-.22a10.28,10.28,0,0,0-1.95.15l.3,12.9a59.62,59.62,0,0,1-.22,6.22l17.4-.22c1.6.25,2.4.92,2.4,2a3.38,3.38,0,0,1-1,2.25,4.41,4.41,0,0,1-2.36,1.43l-19.2.3a3.52,3.52,0,0,1-2.4-.64,2.84,2.84,0,0,1-.67-2.14,53.39,53.39,0,0,0,.3-6.75V507Z" transform="translate(-61.83 -123.75)"/><path class="cls-2" d="M357.73,473.13l30.38-.45c1.45.45,2.17,1.18,2.17,2.18q0,3.75-3.07,3.75-5.62,0-11.93.3-.37,6.45-.37,9.71v4.16l.3,26.33c0,1.55-.41,2.45-1.2,2.7a7.21,7.21,0,0,1-2.25.3c-1.46,0-2.25-.83-2.4-2.48q-.45-5.77-.45-21.56t.45-19c-1.05.05-2.61.07-4.65.07s-4.6,0-7.65-.07a2.39,2.39,0,0,1-1.88-.75,2.64,2.64,0,0,1-.67-1.84,3.22,3.22,0,0,1,.93-2.14A3.52,3.52,0,0,1,357.73,473.13Z" transform="translate(-61.83 -123.75)"/><path class="cls-2" d="M393.65,496a2.18,2.18,0,0,1-1-1.95,3.69,3.69,0,0,1,.83-2.33q-.3-7.5-.3-15.82a4.2,4.2,0,0,1,4.12-3.68q9.9.45,21.45.45c1.9.4,2.85,1.23,2.85,2.48q0,3.15-6.15,3.67c-1.1.05-2.3.08-3.6.08h-4.87q-1.43,0-7.88-.6,0,9.38.3,12.9,4,.07,15.3.07c1.8.35,2.7,1.16,2.7,2.44a3.25,3.25,0,0,1-2.17,3,3,3,0,0,1-.83.3l-13-.22a10.28,10.28,0,0,0-1.95.15l.3,12.9a58.88,58.88,0,0,1-.23,6.22l17.4-.22c1.6.25,2.4.92,2.4,2a3.36,3.36,0,0,1-1,2.25,4.41,4.41,0,0,1-2.36,1.43l-19.2.3a3.52,3.52,0,0,1-2.4-.64,2.84,2.84,0,0,1-.68-2.14,53.39,53.39,0,0,0,.3-6.75V507Z" transform="translate(-61.83 -123.75)"/><path class="cls-2" d="M442.63,472.16a18.94,18.94,0,0,1,8.29,1.65q3.4,1.65,3.41,4.2a3.41,3.41,0,0,1-.56,1.95,1.88,1.88,0,0,1-1.65.82,15.34,15.34,0,0,1-4.69-1.69,15.72,15.72,0,0,0-6.56-1.68,12,12,0,0,0-6.12,1.87q-3.15,1.88-3.15,4.58,0,3.67,3.83,5.4a38.27,38.27,0,0,0,8.17,2.28,17.27,17.27,0,0,1,8.7,4.13q3.38,3.12,3.38,9.41,0,9.6-5.78,14.18c-2.15,1.7-5.18,2.55-9.11,2.55a24.11,24.11,0,0,1-11.74-3.23q-3.82-2-3.82-4.05a2.9,2.9,0,0,1,.64-1.65,4.93,4.93,0,0,1,1.76-1.5,2.29,2.29,0,0,1,2.06-.19c.63.28,1.64.77,3,1.47s2.42,1.17,3.07,1.42a16.71,16.71,0,0,0,5.93,1.2,7.42,7.42,0,0,0,5.36-2.74,9.37,9.37,0,0,0,2.59-6.71q0-5.25-5.25-7.35a26.28,26.28,0,0,0-5.78-1.57q-6.67-1.2-10-4t-3.37-8.51a10.22,10.22,0,0,1,4.87-9Q435,472.15,442.63,472.16Z" transform="translate(-61.83 -123.75)"/><path class="cls-2" d="M478.78,519.41a2.31,2.31,0,0,1-1.13-1.84,2.1,2.1,0,0,1,.83-1.69,188.59,188.59,0,0,1-1.43-24.6q0-4.2.38-16.35A3.9,3.9,0,0,1,479,473a3.84,3.84,0,0,1,2.21-.82,6,6,0,0,1,1.27.07,39.71,39.71,0,0,1,18.68,11.59,30.75,30.75,0,0,1,8.32,20.59q0,13.2-10.95,16.57a22.3,22.3,0,0,1-6.63,1,31.48,31.48,0,0,1-6.12-.53Zm4.5-28.73a197.18,197.18,0,0,0,1.5,24.9,27.92,27.92,0,0,0,14.29-.9q3.93-1.42,4.16-4.2a32.21,32.21,0,0,0,.22-3.22A29.44,29.44,0,0,0,498.24,490a32.37,32.37,0,0,0-14.59-11.4Q483.28,487.46,483.28,490.68Z" transform="translate(-61.83 -123.75)"/><path class="cls-2" d="M514.1,496a2.18,2.18,0,0,1-1.05-1.95,3.69,3.69,0,0,1,.83-2.33q-.3-7.5-.3-15.82a4.2,4.2,0,0,1,4.12-3.68q9.9.45,21.45.45c1.9.4,2.85,1.23,2.85,2.48q0,3.15-6.15,3.67c-1.1.05-2.3.08-3.6.08h-4.87q-1.43,0-7.88-.6,0,9.38.3,12.9,4,.07,15.3.07c1.8.35,2.7,1.16,2.7,2.44a3.25,3.25,0,0,1-2.17,3,3,3,0,0,1-.83.3l-13-.22a10.28,10.28,0,0,0-2,.15l.3,12.9A58.88,58.88,0,0,1,520,516l17.4-.22c1.6.25,2.4.92,2.4,2a3.36,3.36,0,0,1-1,2.25,4.45,4.45,0,0,1-2.36,1.43l-19.2.3a3.52,3.52,0,0,1-2.4-.64,2.84,2.84,0,0,1-.68-2.14,53.39,53.39,0,0,0,.3-6.75V507Z" transform="translate(-61.83 -123.75)"/><path class="cls-2" d="M598.85,471.86c1.2,0,2,.87,2.33,2.62q.38,12.22.37,26.66t-.15,16.69a5.21,5.21,0,0,1-1,3.15,4,4,0,0,1-3,.9q-1.95,0-1.95-2.4v-17q0-4.12-.15-8.47c-.1-2.9-.15-4.73-.15-5.48a21.7,21.7,0,0,1-6.75,7.16,16.46,16.46,0,0,1-9.38,2.82,10.86,10.86,0,0,1-8.7-4.28c-.1,3.05-.15,6.67-.15,10.84s0,8.56.08,13.16A3.11,3.11,0,0,1,569,521a4.84,4.84,0,0,1-2.81.86c-1.35,0-2-.82-2-2.47q.07-6.75.08-21.38v-21.3a4.14,4.14,0,0,1,.86-2.47,2.47,2.47,0,0,1,2-1.2,3.86,3.86,0,0,1,2.14.63,2.33,2.33,0,0,1,1.05,1.92q.3,8.33,2.7,12.37t5.7,4a13.35,13.35,0,0,0,5.66-1.09,14.49,14.49,0,0,0,3.9-2.51,15.62,15.62,0,0,0,3-4.05,61.59,61.59,0,0,0,3.9-9.22Q596.3,471.86,598.85,471.86Z" transform="translate(-61.83 -123.75)"/><path class="cls-2" d="M624.43,472.38a3.85,3.85,0,0,1,3.15,1.65,31.86,31.86,0,0,1,3.3,6.83q4.73,12.22,9.22,38.32a3.77,3.77,0,0,1,.08.87,1.75,1.75,0,0,1-.72,1.2,3,3,0,0,1-2,.63,3.74,3.74,0,0,1-2.21-.63,3.22,3.22,0,0,1-1.2-2.1q-.3-1.47-1.13-5.74-1.8-9.52-2.4-9.9-.9-.52-6-1.13c-3.38-.4-5.61-.6-6.71-.6s-1.76.1-2,.3q-1.35,1.2-3.68,18.23c-.2,1-1.15,1.42-2.85,1.42s-2.55-.72-2.55-2.17q0-5.4,4-20.63t6.6-20.17Q620.68,472.39,624.43,472.38Zm-.3,8.33q-1.12,0-3.9,6.64t-2.78,8.21a.72.72,0,0,0,.15.52c.4.4,2,.75,4.73,1.05s4.57.45,5.47.45,1.4-.06,1.5-.18a2.66,2.66,0,0,0,.15-1.2,62.87,62.87,0,0,0-2-8.25Q625.41,480.71,624.13,480.71Z" transform="translate(-61.83 -123.75)"/><path class="cls-2" d="M681.35,496a2.18,2.18,0,0,1-1.05-1.95,3.64,3.64,0,0,1,.83-2.33q-.3-7.5-.3-15.82a4.18,4.18,0,0,1,4.12-3.68q9.9.45,21.45.45c1.9.4,2.85,1.23,2.85,2.48q0,3.15-6.15,3.67c-1.1.05-2.3.08-3.6.08h-4.87q-1.43,0-7.88-.6,0,9.38.3,12.9,4,.07,15.3.07c1.8.35,2.7,1.16,2.7,2.44a3.26,3.26,0,0,1-2.17,3,3.08,3.08,0,0,1-.83.3l-13-.22a10.21,10.21,0,0,0-2,.15l.3,12.9a58.88,58.88,0,0,1-.23,6.22l17.4-.22c1.6.25,2.4.92,2.4,2a3.41,3.41,0,0,1-1,2.25,4.44,4.44,0,0,1-2.37,1.43l-19.19.3a3.49,3.49,0,0,1-2.4-.64,2.8,2.8,0,0,1-.68-2.14,53.39,53.39,0,0,0,.3-6.75V507Z" transform="translate(-61.83 -123.75)"/><path class="cls-2" d="M718.1,521a3.77,3.77,0,0,1-2.59,1.09c-.92,0-1.56-.6-1.91-1.8q-.23-9.9-.23-19.73l-.22-18.9q0-5.7,5-7.8a22.69,22.69,0,0,1,9.61-1.87,15.8,15.8,0,0,1,6.11,1.38,18.11,18.11,0,0,1,5.85,4.05,8.22,8.22,0,0,1,2.59,5.78c0,2.07-1,4.3-2.86,6.67a29.72,29.72,0,0,1-7.05,6.31,36.84,36.84,0,0,1-8.17,4.08,75.37,75.37,0,0,1,12.15,10.46q5.18,5.6,5.17,8.67a2.47,2.47,0,0,1-1,1.84,3.47,3.47,0,0,1-2.36.86,3,3,0,0,1-2.37-1.2,25.69,25.69,0,0,0-6.26-8.37,73.29,73.29,0,0,0-10.76-8.36l.45,14.4A3.23,3.23,0,0,1,718.1,521Zm12.19-29.14q6.26-4,6.26-7.16a5.36,5.36,0,0,0-3.15-4.91,15.31,15.31,0,0,0-7.46-1.73,18.43,18.43,0,0,0-6.87,1.05Q719,483,719,496.08,724,495.86,730.29,491.88Z" transform="translate(-61.83 -123.75)"/><path class="cls-2" d="M763.85,472.38A3.85,3.85,0,0,1,767,474a31.86,31.86,0,0,1,3.3,6.83q4.73,12.22,9.22,38.32a3.77,3.77,0,0,1,.08.87,1.76,1.76,0,0,1-.71,1.2,3,3,0,0,1-2,.63,3.74,3.74,0,0,1-2.21-.63,3.26,3.26,0,0,1-1.2-2.1q-.3-1.47-1.13-5.74-1.8-9.52-2.4-9.9c-.6-.35-2.58-.73-6-1.13s-5.61-.6-6.71-.6a3.54,3.54,0,0,0-2,.3q-1.35,1.2-3.68,18.23c-.2,1-1.15,1.42-2.85,1.42s-2.55-.72-2.55-2.17q0-5.4,4-20.63t6.6-20.17Q760.1,472.39,763.85,472.38Zm-.3,8.33q-1.12,0-3.9,6.64t-2.78,8.21a.72.72,0,0,0,.15.52c.4.4,2,.75,4.73,1.05s4.57.45,5.47.45,1.4-.06,1.5-.18a2.66,2.66,0,0,0,.15-1.2,62.87,62.87,0,0,0-2-8.25Q764.83,480.71,763.55,480.71Z" transform="translate(-61.83 -123.75)"/><path class="cls-2" d="M645.84,519.35a2.3,2.3,0,0,1-1.12-1.84,2.08,2.08,0,0,1,.82-1.68,188.72,188.72,0,0,1-1.42-24.6q0-4.2.37-16.35a4.52,4.52,0,0,1,3.75-2.78,5.87,5.87,0,0,1,1.28.08,39.61,39.61,0,0,1,18.67,11.59,30.71,30.71,0,0,1,8.33,20.58q0,13.2-10.95,16.58a22.31,22.31,0,0,1-6.64,1,31.5,31.5,0,0,1-6.11-.52Zm4.5-28.72a197.18,197.18,0,0,0,1.5,24.9,24.47,24.47,0,0,0,6.08.52,23.91,23.91,0,0,0,8.21-1.42c2.63-1,4-2.35,4.16-4.2.15-1.4.23-2.48.23-3.23A29.52,29.52,0,0,0,665.31,490a32.42,32.42,0,0,0-14.59-11.4Q650.35,487.4,650.34,490.63Z" transform="translate(-61.83 -123.75)"/><path class="cls-2" d="M748.84,373.82s15.53-.7,17.07-1,6.35-1.93,1.79-5.81-53-46.31-53-46.31-19.84-22.29-32-14.15-22.83,17.25-22.83,17.25-2.38,3.68-3.37-.78.39-7.75-3.38-7.94-13.89-.39-13.89-.39-4.37-.58-4,3.29S636.5,345,636.5,345s.4,2.52-2.18,5.43S621.42,368,621.42,368s-3,4.26,1.58,4.65,13.9-.58,14.49,3.1,11.32,45.73,11.32,45.73L654.06,441s.46,4.25,6.08,6c7.3,2.32,16.68,1.32,17.28,1.32h13.36c1.39,0,18.08-1.07,24.52-1.21,6.77-.14,14.27.05,17.11-.38.4-.06,2.82-.36,3.22-.48,1.86-.57,1.6-1.44,2.89-8.24,1.58-8.37,6.55-52,6.55-52S746.86,376.34,748.84,373.82Z" transform="translate(-61.83 -123.75)"/><path class="cls-1" d="M713,386.65l-8.43-22.53a11.53,11.53,0,0,0-21.6,0l-8.43,22.53c-1,2.77,3.06,5.36,8.5,5.36h21.46C709.93,392,714,389.42,713,386.65Z" transform="translate(-61.83 -123.75)"/></svg>