<?xml version="1.0" encoding="utf-8"?>
<!-- Generator: Adobe Illustrator 24.0.2, SVG Export Plug-In . SVG Version: 6.00 Build 0)  -->
<svg version="1.1" id="Capa_1" xmlns="http://www.w3.org/2000/svg" xmlns:xlink="http://www.w3.org/1999/xlink" x="0px" y="0px"
	 viewBox="0 0 204 67" style="enable-background:new 0 0 204 67;" xml:space="preserve">
<style type="text/css">
	.st0{clip-path:url(#SVGID_2_);}
	.st1{fill:#C0D5BC;}
	.st2{fill:#637B7E;}
</style>
<g>
	<defs>
		<rect id="SVGID_1_" width="204" height="67"/>
	</defs>
	<clipPath id="SVGID_2_">
		<use xlink:href="#SVGID_1_"  style="overflow:visible;"/>
	</clipPath>
	<g id="Mesa_de_trabajo_1" class="st0">
		<g id="Logo" transform="translate(-46 -82.33)">
			<path id="Rectángulo_2" class="st1" d="M53,82.3h190c3.9,0,7,3.1,7,7v53c0,3.9-3.1,7-7,7H53c-3.9,0-7-3.1-7-7v-53
				C46,85.5,49.1,82.3,53,82.3z"/>
			<path id="Trazado_1" class="st2" d="M62,91.7c-0.4,0-0.8,0.1-1.1,0.5c-0.3,0.3-0.4,0.7-0.4,1.1v43.9c0,0.4,0.1,0.8,0.4,1.1
				c0.3,0.3,0.7,0.5,1.1,0.4h32c0.4,0,0.8-0.2,1.1-0.5c0.3-0.3,0.5-0.7,0.4-1.1v-8.8c0-0.4-0.2-0.8-0.4-1.1
				c-0.3-0.3-0.7-0.5-1.1-0.5H74.8c-0.4,0-0.8-0.1-1.1-0.4c-0.3-0.3-0.4-0.7-0.4-1.1V93.2c0-0.4-0.2-0.8-0.5-1.1
				c-0.3-0.3-0.7-0.4-1.1-0.4L62,91.7z M127.6,91.7c-0.4,0-0.8,0.2-1.1,0.4c-0.3,0.3-0.5,0.7-0.4,1.1v25.9c0.1,1.4-0.2,2.8-0.8,4.1
				c-0.5,1-1.1,1.9-1.9,2.6c-0.7,0.6-1.6,1-2.5,1.3c-1.6,0.5-3.3,0.5-4.8,0c-2-0.6-3.6-2-4.5-3.9c-0.6-1.3-0.8-2.7-0.8-4.1V93.2
				c0-0.4-0.2-0.8-0.5-1.1c-0.3-0.3-0.7-0.5-1.1-0.4h-9.7c-0.8,0-1.5,0.7-1.5,1.5c0,0,0,0,0,0v26c0,2.8,0.5,5.7,1.5,8.3
				c0.9,2.4,2.3,4.6,4.2,6.4c1.9,1.8,4.1,3.2,6.5,4.1c5.4,1.9,11.4,1.9,16.8,0c2.4-0.9,4.6-2.3,6.5-4.1c1.8-1.8,3.2-4,4.1-6.4
				c1-2.7,1.5-5.5,1.4-8.3v-26c0-0.9-0.7-1.5-1.5-1.5c0,0,0,0,0,0L127.6,91.7z M161.6,126.2c-0.3-0.3-0.5-0.7-0.4-1.1v-20
				c0-0.4,0.2-0.8,0.4-1.1c0.3-0.3,0.7-0.5,1.1-0.4h4.8c1.2,0,2.5,0.2,3.7,0.4c2.7,0.6,5,2.6,6,5.2c1.3,3.8,1.3,8,0,11.8
				c-0.6,1.4-1.4,2.6-2.5,3.5c-1,0.8-2.2,1.4-3.5,1.7c-1.2,0.3-2.5,0.4-3.7,0.4h-4.8C162.2,126.7,161.9,126.5,161.6,126.2
				 M149.9,91.7c-0.4,0-0.8,0.2-1.1,0.5c-0.3,0.3-0.5,0.7-0.4,1.1v43.9c0,0.8,0.7,1.5,1.5,1.5c0,0,0,0,0,0h17.6
				c3.1,0,6.2-0.5,9.2-1.5c2.7-1,5.2-2.4,7.4-4.4c2.3-2.1,4.1-4.7,5.3-7.7c1.2-3.2,1.8-6.6,1.8-10c0.1-3.4-0.6-6.8-1.8-9.9
				c-1.2-2.9-3-5.5-5.3-7.6c-4.3-3.9-9.8-5.9-16.5-5.9L149.9,91.7z M210.3,120.7c-0.2-0.3-0.2-0.7,0-1l3.2-7.7
				c0.2-0.4,0.4-0.6,0.6-0.6s0.4,0.2,0.6,0.6c0.5,1.2,1.1,2.6,1.7,4c0.6,1.4,1.1,2.7,1.5,3.7c0.2,0.3,0.2,0.7,0,1
				c-0.2,0.3-0.6,0.4-0.9,0.4h-5.7C210.9,121.2,210.5,121,210.3,120.7 M209.7,91.7c-0.5,0-0.9,0.1-1.3,0.4c-0.4,0.2-0.7,0.6-0.9,1
				l-18.6,43.5c-0.1,0.3-0.2,0.6-0.2,0.9c0.1,0.5,0.4,0.9,0.9,1c0.2,0.1,0.4,0.1,0.7,0.1h11c0.4,0,0.9-0.1,1.2-0.4
				c0.4-0.2,0.7-0.6,0.9-1l1.8-3.7c0.2-0.4,0.5-0.7,0.9-1c0.4-0.3,0.8-0.4,1.3-0.4h13.5c0.4,0,0.9,0.1,1.2,0.4
				c0.4,0.2,0.7,0.6,0.9,1l1.7,3.7c0.2,0.4,0.5,0.7,0.9,1c0.4,0.3,0.8,0.4,1.3,0.4H238c0.5,0.1,1.1-0.2,1.4-0.6
				c0.2-0.4,0.3-0.8,0.1-1.2l-18.7-43.7c-0.2-0.4-0.5-0.7-0.9-1c-0.4-0.3-0.8-0.4-1.2-0.4H209.7z"/>
		</g>
	</g>
</g>
</svg>
